<?xml version="1.0" encoding="UTF-8" standalone="no"?><!DOCTYPE svg PUBLIC "-//W3C//DTD SVG 1.1//EN" "http://www.w3.org/Graphics/SVG/1.1/DTD/svg11.dtd"><svg width="100%" height="100%" viewBox="0 0 65 65" version="1.1" xmlns="http://www.w3.org/2000/svg" xmlns:xlink="http://www.w3.org/1999/xlink" xml:space="preserve" xmlns:serif="http://www.serif.com/" style="fill-rule:evenodd;clip-rule:evenodd;stroke-linejoin:round;stroke-miterlimit:2;"><g transform="matrix(1,0,0,1,-17.5,-20)"><g transform="matrix(0.928571,0,0,1.29485,3.57143,-7.73182)"><g transform="matrix(1,0,0,1,-0.0198597,-1.06581e-14)"><g transform="matrix(0.75,0,0,0.75,17.1449,12.125)"><g transform="matrix(0.195578,0.437587,-0.510334,0.380609,104.226,0.0381593)"><rect x="15.498" y="41.198" width="9.375" height="30.828" style="fill:rgb(83,100,113);"/></g><g transform="matrix(-0.195578,0.437587,0.510334,0.380609,54.34,29.2025)"><rect x="15.498" y="41.198" width="9.375" height="30.828" style="fill:rgb(83,100,113);"/></g><g transform="matrix(8.14225e-17,0.505282,-0.589283,0,114.777,34.5639)"><rect x="15.498" y="41.198" width="9.375" height="30.828" style="fill:rgb(83,100,113);"/></g></g><g transform="matrix(0.75,0,0,0.75,7.50496,12.125)"><g transform="matrix(-0.195578,0.437587,0.510334,0.380609,-3.70631,0.0381593)"><rect x="15.498" y="41.198" width="9.375" height="30.828" style="fill:rgb(83,100,113);"/></g><g transform="matrix(0.195578,0.437587,-0.510334,0.380609,46.1799,29.2025)"><rect x="15.498" y="41.198" width="9.375" height="30.828" style="fill:rgb(83,100,113);"/></g><g transform="matrix(-8.14225e-17,0.505282,0.589283,0,-14.2572,34.5639)"><rect x="15.498" y="41.198" width="9.375" height="30.828" style="fill:rgb(83,100,113);"/></g></g></g><g transform="matrix(1,0,0,0.885895,0,2.44378)"><g><g transform="matrix(1.52083,0,0,1.61667,-15.3958,-34.3167)"><path d="M55,59.097L55,67L31,67L31,58.981C32.309,60.09 37.222,60.915 43.076,60.915C48.724,60.915 53.496,60.147 55,59.097Z" style="fill:rgb(83,100,113);"/></g><g transform="matrix(1.52083,0,0,1.61667,-15.3958,-34.3167)"><path d="M31,52.076L31,49.753C32.309,50.862 37.222,51.687 43.076,51.687C48.724,51.687 53.496,50.919 55,49.869L55,52.192C53.496,53.242 48.724,54.01 43.076,54.01C37.222,54.01 32.309,53.185 31,52.076Z" style="fill:rgb(83,100,113);"/></g><g transform="matrix(1.52083,0,0,1.61667,-15.3958,-34.3167)"><path d="M31,42.848L31,37C31,38.536 36.377,39.784 43,39.784C49.623,39.784 55,38.536 55,37L55,42.964C53.496,44.014 48.724,44.782 43.076,44.782C37.222,44.782 32.309,43.957 31,42.848Z" style="fill:rgb(83,100,113);"/></g></g><g transform="matrix(0.758814,0,0,0.90696,7.13132,4.1847)"><ellipse cx="56.5" cy="23.5" rx="23.5" ry="4.5" style="fill:rgb(83,100,113);"/></g><g transform="matrix(1,0,0,1.1288,0,-2.75855)"><g transform="matrix(0.171233,0,0,1.925,29.0103,-41.725)"><rect x="16" y="37" width="3" height="20" style="fill:rgb(83,100,113);"/></g><g transform="matrix(0.171233,0,0,1.925,65.0034,-41.725)"><rect x="16" y="37" width="3" height="20" style="fill:rgb(83,100,113);"/></g></g><g transform="matrix(0.776596,0,0,0.90696,6.12234,52.6864)"><ellipse cx="56.5" cy="23.5" rx="23.5" ry="4.5" style="fill:rgb(83,100,113);"/></g></g></g></g></svg>