<?xml version="1.0" encoding="UTF-8" standalone="no"?>
<!DOCTYPE svg PUBLIC "-//W3C//DTD SVG 1.1//EN" "http://www.w3.org/Graphics/SVG/1.1/DTD/svg11.dtd">
<svg width="100%" height="100%" viewBox="0 0 65 65" version="1.1" xmlns="http://www.w3.org/2000/svg" xmlns:xlink="http://www.w3.org/1999/xlink" xml:space="preserve" xmlns:serif="http://www.serif.com/" style="fill-rule:evenodd;clip-rule:evenodd;stroke-linejoin:round;stroke-miterlimit:2;">
    <g>
        <g transform="matrix(1.4122,0,0,1.85448,-28.2247,-63.9322)">
            <path d="M31,39.212L31,37C31,38.536 36.377,39.784 43,39.784C49.623,39.784 55,38.536 55,37L55,39.216L47.957,44.579C46.458,44.71 44.808,44.782 43.076,44.782C41.279,44.782 39.571,44.704 38.028,44.564L31,39.212ZM55.005,46.507L55.005,57.492L54.667,57.235L54.667,52.393C53.727,52.888 52.041,53.308 49.888,53.596L47.792,51.999L48.539,51.43C51.334,51.151 53.539,50.664 54.667,50.07L54.667,46.764L55.005,46.507ZM55.005,64.786L55.005,67L55,67C55,68.393 49.623,69.524 43,69.524C36.377,69.524 31,68.393 31,67L31,64.786L36.574,60.541C38.466,60.778 40.693,60.915 43.076,60.915C45.406,60.915 47.587,60.784 49.451,60.557L55.005,64.786ZM31,57.492L31,46.507L31.338,46.764L31.338,49.988C32.393,50.608 34.603,51.118 37.442,51.413L38.213,51.999L36.138,53.579C33.929,53.276 32.225,52.832 31.338,52.311L31.338,57.235L31,57.492ZM35.017,44.178C33.353,43.889 32.069,43.512 31.338,43.083L31.338,44.857L31,44.6L31,41.119L35.017,44.178ZM55.005,41.119L55.005,44.6L54.667,44.857L54.667,43.165C53.887,43.576 52.593,43.935 50.946,44.21L55.005,41.119ZM55.005,59.399L55.005,62.88L51.535,60.238C52.903,59.979 53.983,59.658 54.667,59.298L54.667,59.141L55.005,59.399ZM47.692,53.83C46.898,53.894 46.064,53.943 45.2,53.973L46.54,52.953L47.692,53.83ZM40.798,53.968C39.94,53.935 39.114,53.885 38.328,53.819L39.465,52.953L40.798,53.968ZM41.166,51.657C41.789,51.677 42.426,51.687 43.076,51.687C43.676,51.687 44.267,51.678 44.844,51.662L45.288,51.999L43.002,53.74L40.717,51.999L41.166,51.657ZM31,62.88L31,59.399L31.338,59.141L31.338,59.216C31.991,59.599 33.086,59.941 34.499,60.215L31,62.88ZM43.003,34.474C49.474,34.474 54.728,35.606 54.728,36.999C54.728,38.392 49.474,39.523 43.003,39.523C36.532,39.523 31.278,38.392 31.278,36.999C31.278,35.606 36.532,34.474 43.003,34.474Z" style="fill:rgb(83,100,113);"/>
        </g>
        <g transform="matrix(0.576845,-0.576845,1.06129,1.06129,-11.231,0.0903834)">
            <path d="M7.018,34.352L7.018,10.313C7.018,9.894 7.645,9.553 8.417,9.553L11.215,9.553C11.987,9.553 12.614,9.894 12.614,10.313L12.614,34.352L56.841,34.352C57.613,34.352 58.24,34.693 58.24,35.113L58.24,36.633C58.24,37.053 57.613,37.394 56.841,37.394L12.614,37.394L12.614,61.433C12.614,61.852 11.987,62.193 11.215,62.193L8.417,62.193C7.645,62.193 7.018,61.852 7.018,61.433L7.018,37.394L-37.209,37.394C-37.981,37.394 -38.608,37.053 -38.608,36.633L-38.608,35.113C-38.608,34.693 -37.981,34.352 -37.209,34.352L7.018,34.352Z" style="fill:rgb(83,100,113);"/>
        </g>
    </g>
</svg>
